<svg width="839" height="751" viewBox="0 0 839 751" fill="none" xmlns="http://www.w3.org/2000/svg">
<path d="M57.6161 252.868C111.592 105.309 253.151 0 419.285 0C585.42 0 726.978 105.309 780.954 252.868H749.556C697.043 121.855 568.959 29.3359 419.285 29.3359C269.611 29.3359 141.528 121.855 89.0143 252.868H57.6161Z" fill="#081F3E"/>
<path d="M70.9178 549.666C115.493 644.16 197.319 717.597 297.436 751H541.135C641.251 717.597 723.078 644.16 767.653 549.666H734.927C693.317 629.567 622.307 691.689 536.255 721.664H302.315C216.264 691.689 145.254 629.567 103.643 549.666H70.9178Z" fill="#081F3E"/>
<path d="M783.541 529.946V337.929H836.752V529.946H783.541Z" fill="#081F3E"/>
<path d="M810.271 313.177C802.361 313.177 795.574 310.551 789.912 305.301C784.332 299.967 781.543 293.591 781.543 286.174C781.543 278.84 784.332 272.548 789.912 267.297C795.574 261.964 802.361 259.297 810.271 259.297C818.182 259.297 824.927 261.964 830.506 267.297C836.169 272.548 839 278.84 839 286.174C839 293.591 836.169 299.967 830.506 305.301C824.927 310.551 818.182 313.177 810.271 313.177Z" fill="#081F3E"/>
<path d="M529.387 273.923H462.687V529.946H515.148V362.681H517.271L583.472 528.696H619.195L685.396 363.306H687.519V529.946H739.98V273.923H673.28L602.832 445.938H599.835L529.387 273.923Z" fill="#081F3E"/>
<path fill-rule="evenodd" clip-rule="evenodd" d="M312.361 533.571C300.12 533.571 289.211 531.446 279.635 527.195C270.059 522.862 262.481 516.486 256.902 508.069C251.406 499.568 248.658 488.984 248.658 476.316C248.658 465.648 250.615 456.689 254.529 449.439C258.443 442.188 263.772 436.354 270.517 431.937C277.262 427.52 284.923 424.186 293.5 421.936C302.16 419.686 311.237 418.102 320.729 417.186C331.888 416.019 340.881 414.936 347.709 413.935C354.538 412.852 359.492 411.269 362.573 409.185C365.654 407.102 367.195 404.018 367.195 399.934V399.184C367.195 391.267 364.697 385.141 359.7 380.807C354.787 376.474 347.793 374.307 338.716 374.307C329.14 374.307 321.521 376.432 315.858 380.682C310.196 384.85 306.448 390.1 304.616 396.434L255.403 392.434C257.901 380.766 262.814 370.682 270.142 362.181C277.47 353.597 286.921 347.013 298.496 342.429C310.154 337.762 323.644 335.428 338.966 335.428C349.625 335.428 359.825 336.679 369.568 339.179C379.394 341.679 388.096 345.554 395.674 350.805C403.335 356.055 409.372 362.806 413.785 371.057C418.199 379.224 420.405 389.017 420.405 400.434V529.946H369.943V503.318H368.444C365.363 509.319 361.241 514.611 356.078 519.195C350.915 523.695 344.712 527.237 337.467 529.821C330.222 532.321 321.854 533.571 312.361 533.571ZM327.599 496.818C335.427 496.818 342.338 495.276 348.334 492.192C354.329 489.025 359.034 484.775 362.448 479.441C365.863 474.107 367.57 468.065 367.57 461.315V440.938C365.904 442.021 363.614 443.021 360.7 443.938C357.868 444.772 354.663 445.563 351.082 446.313C347.501 446.98 343.921 447.605 340.34 448.189C336.759 448.689 333.512 449.147 330.597 449.564C324.352 450.48 318.897 451.939 314.234 453.939C309.571 455.939 305.949 458.648 303.367 462.065C300.786 465.398 299.495 469.565 299.495 474.566C299.495 481.816 302.118 487.359 307.364 491.192C312.694 494.943 319.439 496.818 327.599 496.818Z" fill="#081F3E"/>
<path d="M213.966 529.946V273.923H160.131V434.937H157.882L47.4646 273.923H0V529.946H54.0847V368.806H55.9583L167.25 529.946H213.966Z" fill="#081F3E"/>
</svg>
