<?xml version="1.0" encoding="utf-8"?>
<!-- Generator: Adobe Illustrator 23.0.1, SVG Export Plug-In . SVG Version: 6.00 Build 0)  -->
<svg version="1.1" id="Layer_1" xmlns="http://www.w3.org/2000/svg" xmlns:xlink="http://www.w3.org/1999/xlink" x="0px" y="0px"
	 viewBox="0 0 792 256.4" style="enable-background:new 0 0 792 256.4;" xml:space="preserve">
<style type="text/css">
	.st0{fill:#FFB71B;}
</style>
<g>
	<polygon class="st0" points="195.5,44.1 154.4,44.1 92.9,194.1 134,194.1 	"/>
	<polygon points="204.9,48.9 184.2,99.3 223.1,194.1 266.7,194.1 	"/>
	<g>
		<path d="M345.4,194.7v-61.9c0-6.9-1.3-12-3.8-15.2c-2.5-3.1-6.5-4.7-11.8-4.7c-6.5,0-11.8,2.1-15.7,6.2c-3.9,4.1-5.9,9.7-5.9,16.6
			v58.9h-33.1V89.4h32.2v13.8c3.6-5.1,8.2-9,13.6-11.8c5.9-3,12.7-4.5,20.1-4.5c12.6,0,22,3.7,28.2,11.1c6.1,7.4,9.3,18.6,9.3,33.4
			v63.4H345.4z"/>
	</g>
	<g>
		<path d="M440.4,196.4c-9.6,0-18.6-1.1-26.6-3.3c-8-2.2-15-5.4-20.9-9.5l-0.3-0.2l8.9-23l0.5,0.4c5.6,3.8,11.9,6.8,18.6,8.9
			s13.6,3.2,20.5,3.2c4.9,0,8.7-0.8,11.3-2.4c2.6-1.5,3.9-3.6,3.9-6.3c0-2.4-0.9-4.2-2.7-5.6c-1.9-1.4-5.4-2.6-10.5-3.7l-17-3.8
			c-10.1-2.3-17.7-5.9-22.5-10.6c-4.8-4.8-7.3-11.5-7.3-19.8c0-6.6,1.9-12.5,5.7-17.5c3.8-5,9.2-9,16.1-11.8
			c6.9-2.8,14.9-4.3,23.7-4.3c7.5,0,14.9,1.2,22,3.4c7.1,2.3,13.6,5.5,19.3,9.6l0.3,0.2l-8.9,22.2l-0.5-0.4
			c-10.9-7.6-21.8-11.4-32.4-11.4c-4.9,0-8.7,0.8-11.4,2.5c-2.7,1.6-4,3.8-4,6.8c0,2.1,0.8,3.7,2.3,4.9c1.6,1.2,4.6,2.4,8.8,3.5
			l17.6,4c10.7,2.4,18.6,6.1,23.5,11.1c5,5,7.5,11.8,7.5,20.2c0,10.2-4.1,18.3-12.2,24.1C465.6,193.5,454.4,196.4,440.4,196.4z"/>
	</g>
	<g>
		<path d="M654.1,196.4c-9.6,0-18.6-1.1-26.6-3.3c-8-2.2-15-5.4-20.9-9.5l-0.3-0.2l8.9-23l0.5,0.4c5.6,3.8,11.8,6.8,18.6,8.9
			c6.7,2.1,13.6,3.2,20.5,3.2c4.8,0,8.7-0.8,11.3-2.4c2.6-1.5,3.9-3.6,3.9-6.3c0-2.4-0.9-4.2-2.7-5.5c-1.8-1.4-5.4-2.6-10.5-3.7
			l-17-3.8c-10.1-2.3-17.7-5.9-22.4-10.6c-4.8-4.8-7.3-11.5-7.3-19.8c0-6.6,1.9-12.5,5.7-17.5c3.8-5,9.2-9,16.1-11.8
			c6.9-2.8,14.9-4.3,23.7-4.3c7.5,0,14.9,1.2,22,3.4c7.1,2.3,13.6,5.5,19.3,9.6l0.3,0.2l-8.9,22.2l-0.5-0.4
			c-10.9-7.6-21.8-11.4-32.4-11.4c-4.8,0-8.7,0.8-11.4,2.5c-2.7,1.6-4,3.8-4,6.8c0,2.1,0.8,3.7,2.3,4.9c1.6,1.2,4.6,2.4,8.8,3.5
			l17.6,4c10.7,2.4,18.6,6.1,23.5,11.1c5,5,7.5,11.8,7.5,20.2c0,10.2-4.1,18.3-12.2,24.1C679.3,193.5,668.1,196.4,654.1,196.4z"/>
	</g>
	<polygon points="573.9,90 548.8,151.2 523.7,90 492.7,90 533.3,189.1 515.5,232.5 546.5,232.5 604.9,90 	"/>
</g>
</svg>
